<?xml version="1.0" standalone="no"?>
<!DOCTYPE svg PUBLIC "-//W3C//DTD SVG 20010904//EN"
 "http://www.w3.org/TR/2001/REC-SVG-20010904/DTD/svg10.dtd">
<svg version="1.0" xmlns="http://www.w3.org/2000/svg"
 width="139.000000pt" height="139.000000pt" viewBox="0 0 139.000000 139.000000"
 preserveAspectRatio="xMidYMid meet">
<metadata>
Created by potrace 1.14, written by Peter Selinger 2001-2017
</metadata>
<g transform="translate(0.000000,139.000000) scale(0.100000,-0.100000)"
fill="#000000" stroke="none">
<path d="M695 1224 c-9 -14 -45 -38 -81 -55 l-65 -29 -50 25 c-62 32 -133 43
-155 24 -31 -26 8 -181 57 -225 27 -24 24 -39 -15 -70 l-34 -28 39 -57 c37
-55 119 -129 142 -129 6 0 1 10 -11 23 -26 27 -28 59 -6 81 19 20 58 21 76 2
12 -11 18 -11 37 5 52 42 151 10 136 -44 -5 -17 -4 -19 4 -7 6 8 8 23 5 32 -7
23 38 35 72 19 31 -14 33 -62 4 -91 -44 -44 19 -10 74 39 24 22 96 123 96 135
0 2 -9 6 -19 9 -10 2 -26 16 -36 30 -16 24 -15 27 5 47 53 53 89 202 56 229
-23 19 -87 9 -155 -26 -47 -23 -62 -26 -88 -19 -28 9 -32 13 -26 34 5 22 4 23
-15 13 -29 -15 -28 -15 -24 24 5 42 0 44 -23 9z m-99 -282 c16 -10 34 -47 34
-69 0 -15 -2 -14 -16 5 -23 33 -69 30 -88 -5 -18 -33 -22 -9 -5 34 15 40 46
55 75 35z m243 -6 c7 -8 14 -31 17 -53 5 -36 5 -37 -8 -13 -23 43 -90 37 -101
-8 -2 -9 -2 -1 0 18 3 19 12 43 20 53 19 21 56 22 72 3z"/>
<path d="M654 789 c-3 -6 1 -18 9 -27 14 -13 21 -13 42 -4 15 7 25 18 23 24
-6 17 -29 23 -26 6 2 -7 -6 -13 -17 -13 -11 0 -19 6 -17 13 3 15 -4 16 -14 1z"/>
<path d="M620 730 c8 -8 21 -27 27 -42 18 -40 57 -38 83 4 10 18 18 34 16 36
-2 2 -30 3 -62 3 -32 0 -63 3 -69 7 -6 4 -4 0 5 -8z"/>
<path d="M551 668 c1 -7 -3 -24 -9 -38 -5 -14 -17 -42 -26 -62 -15 -35 -18
-37 -40 -26 -57 25 -114 -23 -102 -87 10 -49 51 -95 86 -95 47 0 63 -9 48 -28
-11 -13 -10 -14 9 -4 47 25 143 5 143 -30 0 -7 -10 -23 -22 -37 -13 -14 -16
-20 -8 -13 19 16 90 15 114 -3 22 -17 121 -11 144 8 8 6 20 12 26 12 34 3 66
26 65 47 l-2 23 -4 -22 c-5 -24 -23 -32 -24 -10 0 6 -4 2 -9 -10 -10 -25 -30
-31 -30 -9 0 7 -8 20 -17 27 -15 11 -16 11 -5 -1 16 -19 15 -35 -2 -21 -11 9
-12 6 -8 -14 3 -18 0 -25 -12 -25 -9 0 -16 8 -17 18 0 13 -2 12 -9 -5 -10 -26
-30 -31 -30 -9 0 8 -4 17 -9 20 -5 3 -8 -2 -7 -11 0 -10 -6 -19 -15 -20 -19
-5 -69 34 -69 52 0 27 46 47 99 43 27 -1 47 0 45 4 -6 10 38 20 67 16 19 -2
29 6 51 42 15 25 28 57 28 71 0 36 -35 77 -68 81 l-27 3 27 28 c15 15 23 27
19 27 -5 0 -14 -7 -21 -15 -18 -22 -39 -18 -49 8 -8 19 -10 20 -16 5 -10 -26
-22 -22 -31 10 -11 41 -11 41 -13 52 -1 13 -81 13 -81 1 0 -5 -9 -13 -21 -16
-11 -4 -18 -9 -15 -12 3 -3 17 2 30 11 14 9 36 16 49 16 19 0 23 -5 23 -30 0
-16 -4 -30 -8 -30 -5 0 -6 -5 -3 -10 11 -18 -15 -78 -61 -136 -36 -48 -44 -65
-44 -100 0 -24 4 -54 10 -68 9 -24 7 -26 -16 -26 -21 0 -23 3 -14 19 5 11 10
42 10 69 0 40 -6 57 -30 87 -52 66 -68 98 -73 151 -2 29 -8 57 -11 63 -11 17
59 13 74 -4 7 -8 17 -15 23 -15 5 0 -2 9 -16 20 -28 23 -99 28 -96 8z"/>
<path d="M984 632 c3 -5 0 -13 -6 -15 -9 -4 -10 -6 -1 -6 17 -1 25 16 12 25
-7 4 -9 3 -5 -4z"/>
<path d="M472 308 c-7 -7 -12 -18 -12 -25 0 -21 -21 -15 -27 8 -4 15 -8 17
-14 8 -8 -14 27 -46 38 -35 4 3 14 -1 24 -10 10 -9 25 -14 33 -11 8 3 17 3 21
-1 3 -4 23 -7 43 -8 20 -1 29 1 20 3 -10 3 -18 14 -19 26 l0 22 -11 -22 c-6
-13 -15 -23 -20 -23 -5 0 -13 10 -18 23 -7 17 -9 18 -9 5 -1 -10 -8 -18 -17
-18 -12 0 -15 7 -12 25 4 20 3 23 -8 14 -17 -14 -19 2 -2 19 7 7 10 12 7 12
-3 0 -10 -5 -17 -12z"/>
</g>
</svg>
