<?xml version="1.0" standalone="no"?>
<!DOCTYPE svg PUBLIC "-//W3C//DTD SVG 20010904//EN"
 "http://www.w3.org/TR/2001/REC-SVG-20010904/DTD/svg10.dtd">
<svg version="1.0" xmlns="http://www.w3.org/2000/svg"
 width="800.000000pt" height="800.000000pt" viewBox="0 0 800.000000 800.000000"
 preserveAspectRatio="xMidYMid meet">
<metadata>
Created by potrace 1.14, written by Peter Selinger 2001-2017
</metadata>
<g transform="translate(0.000000,800.000000) scale(0.100000,-0.100000)"
fill="#000000" stroke="none">
<path d="M4203 7960 c-68 -123 -188 -272 -286 -355 -129 -109 -247 -168 -496
-247 -171 -55 -326 -130 -392 -190 -63 -57 -70 -62 -77 -52 -6 9 -31 25 -122
77 -19 11 -48 28 -65 38 -261 155 -690 322 -883 344 -21 2 -50 7 -67 10 -75
16 -271 11 -340 -9 -5 -1 -30 -8 -55 -15 -25 -7 -53 -20 -62 -28 -10 -9 -18
-13 -18 -9 0 16 -70 -62 -80 -90 -28 -72 -30 -262 -5 -409 20 -112 46 -245 55
-275 6 -19 13 -46 16 -60 24 -116 141 -425 217 -570 28 -52 55 -105 61 -117 6
-13 14 -23 19 -23 4 0 7 -5 7 -10 0 -20 125 -187 176 -235 62 -58 92 -83 122
-100 33 -20 38 -33 23 -63 -4 -9 -21 -44 -36 -77 -53 -116 -136 -215 -250
-296 -73 -52 -205 -119 -268 -134 -15 -4 -27 -11 -27 -15 0 -18 69 -73 120
-97 124 -56 119 -54 88 -48 -16 3 -39 8 -53 11 -58 14 9 -78 78 -107 15 -6 27
-15 27 -20 0 -5 -16 -2 -37 6 -20 8 -38 14 -40 12 -2 -2 3 -19 11 -38 20 -47
101 -125 153 -146 50 -21 57 -36 11 -22 -18 5 -37 9 -41 9 -9 0 33 -78 59
-109 7 -9 35 -45 61 -81 47 -64 68 -91 88 -114 6 -6 39 -44 74 -84 68 -78 214
-222 271 -268 19 -16 46 -39 60 -51 81 -73 252 -187 379 -252 95 -49 252 -113
279 -114 8 0 11 -7 8 -16 -3 -9 -17 -48 -31 -88 -23 -65 -24 -76 -12 -105 13
-31 11 -37 -24 -106 -21 -40 -38 -75 -38 -77 0 -3 -13 -42 -30 -86 -17 -44
-38 -104 -46 -134 -9 -30 -38 -91 -64 -137 -51 -90 -125 -268 -124 -298 0 -3
-4 -16 -9 -30 -5 -14 -12 -36 -14 -50 -9 -53 -13 -53 -66 -1 -29 28 -58 51
-65 51 -7 0 -13 4 -13 8 0 11 -118 69 -154 77 -14 3 -38 8 -53 12 -34 8 -169
9 -203 1 -113 -26 -200 -75 -286 -163 -57 -58 -131 -172 -139 -215 -2 -11 -7
-25 -10 -30 -3 -5 -8 -20 -11 -32 -2 -13 -7 -36 -10 -53 -10 -48 -11 -147 -3
-185 4 -19 11 -51 14 -70 10 -57 74 -208 132 -314 66 -117 168 -255 253 -342
l62 -63 -49 -23 c-168 -82 -267 -238 -248 -395 7 -62 17 -84 59 -131 44 -48
88 -69 186 -87 14 -3 38 -20 55 -38 49 -55 92 -75 170 -78 35 -2 92 8 113 20
26 14 91 -31 114 -80 12 -24 28 -47 34 -52 7 -4 19 -13 26 -20 45 -44 150 -47
233 -7 38 19 50 21 53 10 8 -22 54 -61 95 -80 61 -28 164 -10 238 42 13 9 26
5 64 -20 134 -89 332 -35 512 141 55 53 64 59 90 52 76 -19 325 -27 408 -12
22 4 53 10 68 13 24 4 36 -3 75 -44 26 -26 65 -61 87 -77 22 -17 42 -32 45
-35 14 -14 72 -40 129 -59 106 -35 199 -26 268 25 32 24 63 32 63 16 0 -10 60
-37 110 -50 75 -19 150 6 199 65 l29 35 48 -25 c83 -41 182 -33 240 19 11 11
32 39 46 64 13 25 35 50 47 56 13 7 27 16 33 22 6 6 19 7 32 2 33 -13 78 -22
111 -23 70 0 162 44 186 90 8 14 26 24 53 29 22 4 43 8 46 9 22 4 100 47 121
66 46 42 73 107 73 179 0 24 -16 104 -22 115 -4 6 -7 16 -8 23 -7 42 -130 182
-160 182 -8 0 -14 4 -14 8 0 5 -20 17 -45 28 -25 10 -45 21 -45 25 0 5 26 35
58 67 31 33 68 74 82 92 14 18 30 37 35 44 28 29 128 189 159 254 52 104 86
182 79 182 -3 0 -1 6 5 13 5 6 13 28 18 47 4 19 10 42 12 50 13 47 8 207 -8
270 -58 225 -233 402 -442 447 -43 9 -165 9 -205 0 -28 -5 -33 -4 -33 12 0 10
3 21 7 25 4 3 8 16 10 27 9 60 82 180 148 242 83 80 266 165 420 197 88 18
116 36 128 79 11 43 -17 78 -89 110 -60 28 -103 33 -264 36 -174 3 -290 -17
-420 -72 -176 -76 -284 -176 -376 -346 l-31 -58 -27 41 c-14 22 -38 77 -52
123 -14 45 -32 97 -40 115 -8 17 -21 49 -30 70 -8 20 -26 59 -40 86 -15 28
-22 55 -18 65 17 41 13 82 -14 149 l-29 70 76 26 c162 56 417 199 562 316 120
97 253 223 369 349 36 39 149 180 185 231 22 30 43 57 47 58 5 2 8 8 8 14 0 5
11 24 25 42 33 43 32 48 -10 40 -48 -9 -44 0 12 27 25 12 63 41 85 63 37 40
74 103 65 112 -2 2 -23 -3 -47 -11 -63 -22 -62 -19 8 21 38 22 68 47 78 66 8
16 14 32 12 34 -2 2 -30 -3 -61 -10 -42 -10 -59 -10 -64 -2 -3 6 -3 8 2 4 9
-8 125 34 172 64 39 23 83 65 83 77 0 4 -19 13 -42 20 -60 18 -190 84 -252
128 -96 68 -191 177 -240 277 -63 126 -65 137 -24 160 46 27 115 91 177 162
48 56 121 160 121 172 0 6 4 12 8 14 24 10 212 407 212 448 0 9 3 20 8 24 4 4
7 11 8 14 0 4 3 14 6 22 45 122 110 373 124 480 3 19 7 46 9 60 22 117 24 308
4 377 -14 52 -67 110 -124 137 -148 70 -411 65 -705 -14 -107 -29 -406 -146
-460 -180 -8 -5 -46 -25 -85 -44 -71 -36 -142 -75 -205 -114 -19 -12 -42 -25
-50 -29 -8 -3 -17 -9 -20 -13 -3 -3 -27 -19 -54 -34 l-49 -28 -71 36 c-63 31
-116 55 -138 61 -5 2 -9 3 -10 5 -2 1 -10 3 -18 5 -81 22 -138 37 -150 39 -23
6 -164 20 -172 18 -4 -1 -5 5 -2 13 4 8 10 15 15 15 31 0 131 141 146 204 7
30 11 139 5 154 -6 18 -13 15 -47 -16 -16 -15 -46 -39 -65 -52 -19 -13 -37
-27 -40 -30 -24 -30 -246 -130 -289 -130 -5 0 4 28 22 63 35 68 34 64 53 155
22 102 18 278 -8 327 -6 11 -10 22 -9 23 2 2 0 6 -3 9 -3 3 -13 -9 -23 -27z"/>
</g>
</svg>
